<svg width="1024" height="512" viewBox="0 0 1024 512" fill="none" xmlns="http://www.w3.org/2000/svg">
<path d="M335.703 241.352C335.703 240.18 335.521 239.138 335.156 238.227C334.818 237.315 334.206 236.482 333.32 235.727C332.435 234.971 331.185 234.242 329.57 233.539C327.982 232.81 325.951 232.068 323.477 231.312C320.768 230.479 318.268 229.555 315.977 228.539C313.711 227.497 311.732 226.299 310.039 224.945C308.346 223.565 307.031 221.99 306.094 220.219C305.156 218.422 304.688 216.352 304.688 214.008C304.688 211.69 305.169 209.581 306.133 207.68C307.122 205.779 308.516 204.138 310.312 202.758C312.135 201.352 314.284 200.271 316.758 199.516C319.232 198.734 321.966 198.344 324.961 198.344C329.18 198.344 332.812 199.125 335.859 200.688C338.932 202.25 341.289 204.346 342.93 206.977C344.596 209.607 345.43 212.51 345.43 215.688H335.703C335.703 213.812 335.299 212.159 334.492 210.727C333.711 209.268 332.513 208.122 330.898 207.289C329.31 206.456 327.292 206.039 324.844 206.039C322.526 206.039 320.599 206.391 319.062 207.094C317.526 207.797 316.38 208.747 315.625 209.945C314.87 211.143 314.492 212.497 314.492 214.008C314.492 215.076 314.74 216.052 315.234 216.938C315.729 217.797 316.484 218.604 317.5 219.359C318.516 220.089 319.792 220.779 321.328 221.43C322.865 222.081 324.674 222.706 326.758 223.305C329.909 224.242 332.656 225.284 335 226.43C337.344 227.549 339.297 228.826 340.859 230.258C342.422 231.69 343.594 233.318 344.375 235.141C345.156 236.938 345.547 238.982 345.547 241.273C345.547 243.669 345.065 245.831 344.102 247.758C343.138 249.659 341.758 251.286 339.961 252.641C338.19 253.969 336.055 254.997 333.555 255.727C331.081 256.43 328.32 256.781 325.273 256.781C322.539 256.781 319.844 256.417 317.188 255.688C314.557 254.958 312.161 253.852 310 252.367C307.839 250.857 306.12 248.982 304.844 246.742C303.568 244.477 302.93 241.833 302.93 238.812H312.734C312.734 240.661 313.047 242.237 313.672 243.539C314.323 244.841 315.221 245.909 316.367 246.742C317.513 247.549 318.841 248.148 320.352 248.539C321.888 248.93 323.529 249.125 325.273 249.125C327.565 249.125 329.479 248.799 331.016 248.148C332.578 247.497 333.75 246.586 334.531 245.414C335.312 244.242 335.703 242.888 335.703 241.352ZM399.336 199.125V256H389.531L364.023 215.258V256H354.219V199.125H364.023L389.609 239.945V199.125H399.336ZM440.938 241.352C440.938 240.18 440.755 239.138 440.391 238.227C440.052 237.315 439.44 236.482 438.555 235.727C437.669 234.971 436.419 234.242 434.805 233.539C433.216 232.81 431.185 232.068 428.711 231.312C426.003 230.479 423.503 229.555 421.211 228.539C418.945 227.497 416.966 226.299 415.273 224.945C413.581 223.565 412.266 221.99 411.328 220.219C410.391 218.422 409.922 216.352 409.922 214.008C409.922 211.69 410.404 209.581 411.367 207.68C412.357 205.779 413.75 204.138 415.547 202.758C417.37 201.352 419.518 200.271 421.992 199.516C424.466 198.734 427.201 198.344 430.195 198.344C434.414 198.344 438.047 199.125 441.094 200.688C444.167 202.25 446.523 204.346 448.164 206.977C449.831 209.607 450.664 212.51 450.664 215.688H440.938C440.938 213.812 440.534 212.159 439.727 210.727C438.945 209.268 437.747 208.122 436.133 207.289C434.544 206.456 432.526 206.039 430.078 206.039C427.76 206.039 425.833 206.391 424.297 207.094C422.76 207.797 421.615 208.747 420.859 209.945C420.104 211.143 419.727 212.497 419.727 214.008C419.727 215.076 419.974 216.052 420.469 216.938C420.964 217.797 421.719 218.604 422.734 219.359C423.75 220.089 425.026 220.779 426.562 221.43C428.099 222.081 429.909 222.706 431.992 223.305C435.143 224.242 437.891 225.284 440.234 226.43C442.578 227.549 444.531 228.826 446.094 230.258C447.656 231.69 448.828 233.318 449.609 235.141C450.391 236.938 450.781 238.982 450.781 241.273C450.781 243.669 450.299 245.831 449.336 247.758C448.372 249.659 446.992 251.286 445.195 252.641C443.424 253.969 441.289 254.997 438.789 255.727C436.315 256.43 433.555 256.781 430.508 256.781C427.773 256.781 425.078 256.417 422.422 255.688C419.792 254.958 417.396 253.852 415.234 252.367C413.073 250.857 411.354 248.982 410.078 246.742C408.802 244.477 408.164 241.833 408.164 238.812H417.969C417.969 240.661 418.281 242.237 418.906 243.539C419.557 244.841 420.456 245.909 421.602 246.742C422.747 247.549 424.076 248.148 425.586 248.539C427.122 248.93 428.763 249.125 430.508 249.125C432.799 249.125 434.714 248.799 436.25 248.148C437.812 247.497 438.984 246.586 439.766 245.414C440.547 244.242 440.938 242.888 440.938 241.352ZM501.523 206.703L484.531 256H474.258L495.664 199.125H502.227L501.523 206.703ZM515.742 256L498.711 206.703L497.969 199.125H504.57L526.055 256H515.742ZM514.922 234.906V242.68H483.984V234.906H514.922ZM556.445 246.039V213.734H565.898V256H556.992L556.445 246.039ZM557.773 237.25L560.938 237.172C560.938 240.01 560.625 242.628 560 245.023C559.375 247.393 558.411 249.464 557.109 251.234C555.807 252.979 554.141 254.346 552.109 255.336C550.078 256.299 547.643 256.781 544.805 256.781C542.747 256.781 540.859 256.482 539.141 255.883C537.422 255.284 535.938 254.359 534.688 253.109C533.464 251.859 532.513 250.232 531.836 248.227C531.159 246.221 530.82 243.826 530.82 241.039V213.734H540.234V241.117C540.234 242.654 540.417 243.943 540.781 244.984C541.146 246 541.641 246.82 542.266 247.445C542.891 248.07 543.62 248.513 544.453 248.773C545.286 249.034 546.172 249.164 547.109 249.164C549.792 249.164 551.901 248.643 553.438 247.602C555 246.534 556.107 245.102 556.758 243.305C557.435 241.508 557.773 239.49 557.773 237.25ZM594.922 213.734V220.609H571.094V213.734H594.922ZM577.969 203.383H587.383V244.32C587.383 245.622 587.565 246.625 587.93 247.328C588.32 248.005 588.854 248.461 589.531 248.695C590.208 248.93 591.003 249.047 591.914 249.047C592.565 249.047 593.19 249.008 593.789 248.93C594.388 248.852 594.87 248.773 595.234 248.695L595.273 255.883C594.492 256.117 593.581 256.326 592.539 256.508C591.523 256.69 590.352 256.781 589.023 256.781C586.862 256.781 584.948 256.404 583.281 255.648C581.615 254.867 580.312 253.604 579.375 251.859C578.438 250.115 577.969 247.797 577.969 244.906V203.383ZM599.453 235.336V234.438C599.453 231.391 599.896 228.565 600.781 225.961C601.667 223.331 602.943 221.052 604.609 219.125C606.302 217.172 608.359 215.661 610.781 214.594C613.229 213.5 615.99 212.953 619.062 212.953C622.161 212.953 624.922 213.5 627.344 214.594C629.792 215.661 631.862 217.172 633.555 219.125C635.247 221.052 636.536 223.331 637.422 225.961C638.307 228.565 638.75 231.391 638.75 234.438V235.336C638.75 238.383 638.307 241.208 637.422 243.812C636.536 246.417 635.247 248.695 633.555 250.648C631.862 252.576 629.805 254.086 627.383 255.18C624.961 256.247 622.214 256.781 619.141 256.781C616.042 256.781 613.268 256.247 610.82 255.18C608.398 254.086 606.341 252.576 604.648 250.648C602.956 248.695 601.667 246.417 600.781 243.812C599.896 241.208 599.453 238.383 599.453 235.336ZM608.867 234.438V235.336C608.867 237.237 609.062 239.034 609.453 240.727C609.844 242.419 610.456 243.904 611.289 245.18C612.122 246.456 613.19 247.458 614.492 248.188C615.794 248.917 617.344 249.281 619.141 249.281C620.885 249.281 622.396 248.917 623.672 248.188C624.974 247.458 626.042 246.456 626.875 245.18C627.708 243.904 628.32 242.419 628.711 240.727C629.128 239.034 629.336 237.237 629.336 235.336V234.438C629.336 232.562 629.128 230.792 628.711 229.125C628.32 227.432 627.695 225.935 626.836 224.633C626.003 223.331 624.935 222.315 623.633 221.586C622.357 220.831 620.833 220.453 619.062 220.453C617.292 220.453 615.755 220.831 614.453 221.586C613.177 222.315 612.122 223.331 611.289 224.633C610.456 225.935 609.844 227.432 609.453 229.125C609.062 230.792 608.867 232.562 608.867 234.438ZM656.055 222.328V256H646.641V213.734H655.508L656.055 222.328ZM654.531 233.305L651.328 233.266C651.328 230.349 651.693 227.654 652.422 225.18C653.151 222.706 654.219 220.557 655.625 218.734C657.031 216.885 658.776 215.466 660.859 214.477C662.969 213.461 665.404 212.953 668.164 212.953C670.091 212.953 671.849 213.24 673.438 213.812C675.052 214.359 676.445 215.232 677.617 216.43C678.815 217.628 679.727 219.164 680.352 221.039C681.003 222.914 681.328 225.18 681.328 227.836V256H671.914V228.656C671.914 226.599 671.602 224.984 670.977 223.812C670.378 222.641 669.505 221.807 668.359 221.312C667.24 220.792 665.898 220.531 664.336 220.531C662.565 220.531 661.055 220.87 659.805 221.547C658.581 222.224 657.578 223.148 656.797 224.32C656.016 225.492 655.443 226.846 655.078 228.383C654.714 229.919 654.531 231.56 654.531 233.305ZM680.742 230.805L676.328 231.781C676.328 229.229 676.68 226.82 677.383 224.555C678.112 222.263 679.167 220.258 680.547 218.539C681.953 216.794 683.685 215.427 685.742 214.438C687.799 213.448 690.156 212.953 692.812 212.953C694.974 212.953 696.901 213.253 698.594 213.852C700.312 214.424 701.771 215.336 702.969 216.586C704.167 217.836 705.078 219.464 705.703 221.469C706.328 223.448 706.641 225.844 706.641 228.656V256H697.188V228.617C697.188 226.482 696.875 224.828 696.25 223.656C695.651 222.484 694.792 221.677 693.672 221.234C692.552 220.766 691.211 220.531 689.648 220.531C688.19 220.531 686.901 220.805 685.781 221.352C684.688 221.872 683.763 222.615 683.008 223.578C682.253 224.516 681.68 225.596 681.289 226.82C680.924 228.044 680.742 229.372 680.742 230.805ZM740.156 247.523V227.367C740.156 225.857 739.883 224.555 739.336 223.461C738.789 222.367 737.956 221.521 736.836 220.922C735.742 220.323 734.362 220.023 732.695 220.023C731.159 220.023 729.831 220.284 728.711 220.805C727.591 221.326 726.719 222.029 726.094 222.914C725.469 223.799 725.156 224.802 725.156 225.922H715.781C715.781 224.255 716.185 222.641 716.992 221.078C717.799 219.516 718.971 218.122 720.508 216.898C722.044 215.674 723.88 214.711 726.016 214.008C728.151 213.305 730.547 212.953 733.203 212.953C736.38 212.953 739.193 213.487 741.641 214.555C744.115 215.622 746.055 217.237 747.461 219.398C748.893 221.534 749.609 224.216 749.609 227.445V246.234C749.609 248.161 749.74 249.893 750 251.43C750.286 252.94 750.69 254.255 751.211 255.375V256H741.562C741.12 254.984 740.768 253.695 740.508 252.133C740.273 250.544 740.156 249.008 740.156 247.523ZM741.523 230.297L741.602 236.117H734.844C733.099 236.117 731.562 236.286 730.234 236.625C728.906 236.938 727.799 237.406 726.914 238.031C726.029 238.656 725.365 239.411 724.922 240.297C724.479 241.182 724.258 242.185 724.258 243.305C724.258 244.424 724.518 245.453 725.039 246.391C725.56 247.302 726.315 248.018 727.305 248.539C728.32 249.06 729.544 249.32 730.977 249.32C732.904 249.32 734.583 248.93 736.016 248.148C737.474 247.341 738.62 246.365 739.453 245.219C740.286 244.047 740.729 242.94 740.781 241.898L743.828 246.078C743.516 247.146 742.982 248.292 742.227 249.516C741.471 250.74 740.482 251.911 739.258 253.031C738.06 254.125 736.615 255.023 734.922 255.727C733.255 256.43 731.328 256.781 729.141 256.781C726.38 256.781 723.919 256.234 721.758 255.141C719.596 254.021 717.904 252.523 716.68 250.648C715.456 248.747 714.844 246.599 714.844 244.203C714.844 241.964 715.26 239.984 716.094 238.266C716.953 236.521 718.203 235.062 719.844 233.891C721.51 232.719 723.542 231.833 725.938 231.234C728.333 230.609 731.068 230.297 734.141 230.297H741.523ZM778.828 213.734V220.609H755V213.734H778.828ZM761.875 203.383H771.289V244.32C771.289 245.622 771.471 246.625 771.836 247.328C772.227 248.005 772.76 248.461 773.438 248.695C774.115 248.93 774.909 249.047 775.82 249.047C776.471 249.047 777.096 249.008 777.695 248.93C778.294 248.852 778.776 248.773 779.141 248.695L779.18 255.883C778.398 256.117 777.487 256.326 776.445 256.508C775.43 256.69 774.258 256.781 772.93 256.781C770.768 256.781 768.854 256.404 767.188 255.648C765.521 254.867 764.219 253.604 763.281 251.859C762.344 250.115 761.875 247.797 761.875 244.906V203.383ZM796.172 213.734V256H786.719V213.734H796.172ZM786.094 202.641C786.094 201.208 786.562 200.023 787.5 199.086C788.464 198.122 789.792 197.641 791.484 197.641C793.151 197.641 794.466 198.122 795.43 199.086C796.393 200.023 796.875 201.208 796.875 202.641C796.875 204.047 796.393 205.219 795.43 206.156C794.466 207.094 793.151 207.562 791.484 207.562C789.792 207.562 788.464 207.094 787.5 206.156C786.562 205.219 786.094 204.047 786.094 202.641ZM804.688 235.336V234.438C804.688 231.391 805.13 228.565 806.016 225.961C806.901 223.331 808.177 221.052 809.844 219.125C811.536 217.172 813.594 215.661 816.016 214.594C818.464 213.5 821.224 212.953 824.297 212.953C827.396 212.953 830.156 213.5 832.578 214.594C835.026 215.661 837.096 217.172 838.789 219.125C840.482 221.052 841.771 223.331 842.656 225.961C843.542 228.565 843.984 231.391 843.984 234.438V235.336C843.984 238.383 843.542 241.208 842.656 243.812C841.771 246.417 840.482 248.695 838.789 250.648C837.096 252.576 835.039 254.086 832.617 255.18C830.195 256.247 827.448 256.781 824.375 256.781C821.276 256.781 818.503 256.247 816.055 255.18C813.633 254.086 811.576 252.576 809.883 250.648C808.19 248.695 806.901 246.417 806.016 243.812C805.13 241.208 804.688 238.383 804.688 235.336ZM814.102 234.438V235.336C814.102 237.237 814.297 239.034 814.688 240.727C815.078 242.419 815.69 243.904 816.523 245.18C817.357 246.456 818.424 247.458 819.727 248.188C821.029 248.917 822.578 249.281 824.375 249.281C826.12 249.281 827.63 248.917 828.906 248.188C830.208 247.458 831.276 246.456 832.109 245.18C832.943 243.904 833.555 242.419 833.945 240.727C834.362 239.034 834.57 237.237 834.57 235.336V234.438C834.57 232.562 834.362 230.792 833.945 229.125C833.555 227.432 832.93 225.935 832.07 224.633C831.237 223.331 830.169 222.315 828.867 221.586C827.591 220.831 826.068 220.453 824.297 220.453C822.526 220.453 820.99 220.831 819.688 221.586C818.411 222.315 817.357 223.331 816.523 224.633C815.69 225.935 815.078 227.432 814.688 229.125C814.297 230.792 814.102 232.562 814.102 234.438ZM861.211 222.758V256H851.797V213.734H860.664L861.211 222.758ZM859.531 233.305L856.484 233.266C856.51 230.271 856.927 227.523 857.734 225.023C858.568 222.523 859.714 220.375 861.172 218.578C862.656 216.781 864.427 215.401 866.484 214.438C868.542 213.448 870.833 212.953 873.359 212.953C875.391 212.953 877.227 213.24 878.867 213.812C880.534 214.359 881.953 215.258 883.125 216.508C884.323 217.758 885.234 219.385 885.859 221.391C886.484 223.37 886.797 225.805 886.797 228.695V256H877.344V228.656C877.344 226.625 877.044 225.023 876.445 223.852C875.872 222.654 875.026 221.807 873.906 221.312C872.812 220.792 871.445 220.531 869.805 220.531C868.19 220.531 866.745 220.87 865.469 221.547C864.193 222.224 863.112 223.148 862.227 224.32C861.367 225.492 860.703 226.846 860.234 228.383C859.766 229.919 859.531 231.56 859.531 233.305Z" fill="white"/>
<path d="M168.75 143.5L75 274.75H150L131.25 368.5L225 237.25H150L168.75 143.5Z" stroke="#4EF0B5" stroke-width="8" stroke-linecap="round" stroke-linejoin="round"/>
<path d="M187.5 227.875C192.678 227.875 196.875 223.678 196.875 218.5C196.875 213.322 192.678 209.125 187.5 209.125C182.322 209.125 178.125 213.322 178.125 218.5C178.125 223.678 182.322 227.875 187.5 227.875Z" fill="#00FFFF"/>
<path d="M112.5 302.875C117.678 302.875 121.875 298.678 121.875 293.5C121.875 288.322 117.678 284.125 112.5 284.125C107.322 284.125 103.125 288.322 103.125 293.5C103.125 298.678 107.322 302.875 112.5 302.875Z" fill="#4EF0B5"/>
<path opacity="0.5" d="M56.25 256C93.75 237.25 131.25 237.25 150 256" stroke="#4EF0B5" stroke-linecap="round"/>
<path opacity="0.5" d="M150 256C168.75 274.75 206.25 274.75 243.75 256" stroke="#4EF0B5" stroke-linecap="round"/>
<path d="M75 181L93.75 199.75M225 181L206.25 199.75M150 124.75V143.5" stroke="#4EF0B5" stroke-width="1.5" stroke-linecap="round"/>
<path d="M409.314 308.845C409.314 308.112 409.201 307.461 408.973 306.892C408.761 306.322 408.379 305.801 407.825 305.329C407.272 304.857 406.491 304.401 405.481 303.962C404.489 303.506 403.219 303.042 401.673 302.57C399.98 302.049 398.418 301.472 396.985 300.837C395.569 300.186 394.332 299.437 393.274 298.591C392.216 297.728 391.395 296.743 390.809 295.637C390.223 294.514 389.93 293.22 389.93 291.755C389.93 290.306 390.231 288.988 390.833 287.8C391.451 286.612 392.322 285.586 393.445 284.724C394.585 283.845 395.927 283.169 397.474 282.697C399.02 282.209 400.729 281.965 402.601 281.965C405.237 281.965 407.508 282.453 409.412 283.43C411.333 284.406 412.806 285.716 413.831 287.36C414.873 289.004 415.394 290.819 415.394 292.805H409.314C409.314 291.633 409.062 290.599 408.558 289.704C408.069 288.793 407.321 288.076 406.312 287.556C405.319 287.035 404.057 286.774 402.527 286.774C401.079 286.774 399.874 286.994 398.914 287.434C397.954 287.873 397.238 288.467 396.766 289.216C396.294 289.965 396.058 290.811 396.058 291.755C396.058 292.422 396.212 293.033 396.521 293.586C396.831 294.123 397.303 294.628 397.938 295.1C398.572 295.555 399.37 295.987 400.33 296.394C401.29 296.8 402.422 297.191 403.724 297.565C405.693 298.151 407.41 298.802 408.875 299.519C410.34 300.218 411.561 301.016 412.537 301.911C413.514 302.806 414.246 303.824 414.734 304.963C415.223 306.086 415.467 307.364 415.467 308.796C415.467 310.293 415.166 311.644 414.563 312.849C413.961 314.037 413.099 315.054 411.976 315.9C410.869 316.73 409.534 317.373 407.972 317.829C406.425 318.269 404.7 318.488 402.796 318.488C401.087 318.488 399.402 318.26 397.742 317.805C396.098 317.349 394.601 316.657 393.25 315.729C391.899 314.785 390.825 313.614 390.027 312.214C389.23 310.798 388.831 309.146 388.831 307.258H394.959C394.959 308.413 395.154 309.398 395.545 310.212C395.952 311.026 396.513 311.693 397.229 312.214C397.946 312.718 398.776 313.093 399.72 313.337C400.68 313.581 401.705 313.703 402.796 313.703C404.228 313.703 405.424 313.5 406.385 313.093C407.361 312.686 408.094 312.116 408.582 311.384C409.07 310.651 409.314 309.805 409.314 308.845ZM419.178 305.085V304.523C419.178 302.619 419.454 300.853 420.008 299.226C420.561 297.582 421.359 296.158 422.4 294.953C423.458 293.732 424.744 292.788 426.258 292.121C427.788 291.438 429.513 291.096 431.434 291.096C433.37 291.096 435.096 291.438 436.609 292.121C438.139 292.788 439.433 293.732 440.491 294.953C441.549 296.158 442.355 297.582 442.908 299.226C443.462 300.853 443.738 302.619 443.738 304.523V305.085C443.738 306.989 443.462 308.755 442.908 310.383C442.355 312.01 441.549 313.435 440.491 314.655C439.433 315.86 438.147 316.804 436.634 317.487C435.12 318.155 433.403 318.488 431.482 318.488C429.546 318.488 427.812 318.155 426.282 317.487C424.769 316.804 423.483 315.86 422.425 314.655C421.367 313.435 420.561 312.01 420.008 310.383C419.454 308.755 419.178 306.989 419.178 305.085ZM425.062 304.523V305.085C425.062 306.273 425.184 307.396 425.428 308.454C425.672 309.512 426.054 310.44 426.575 311.237C427.096 312.035 427.763 312.661 428.577 313.117C429.391 313.573 430.359 313.801 431.482 313.801C432.573 313.801 433.517 313.573 434.314 313.117C435.128 312.661 435.796 312.035 436.316 311.237C436.837 310.44 437.22 309.512 437.464 308.454C437.724 307.396 437.854 306.273 437.854 305.085V304.523C437.854 303.352 437.724 302.245 437.464 301.203C437.22 300.145 436.829 299.209 436.292 298.396C435.771 297.582 435.104 296.947 434.29 296.491C433.493 296.019 432.54 295.783 431.434 295.783C430.327 295.783 429.367 296.019 428.553 296.491C427.755 296.947 427.096 297.582 426.575 298.396C426.054 299.209 425.672 300.145 425.428 301.203C425.184 302.245 425.062 303.352 425.062 304.523ZM456.629 318H450.745V289.045C450.745 287.076 451.111 285.424 451.844 284.089C452.592 282.738 453.659 281.721 455.042 281.037C456.425 280.337 458.061 279.987 459.949 279.987C460.535 279.987 461.113 280.028 461.683 280.109C462.252 280.174 462.806 280.28 463.343 280.427L463.196 284.968C462.871 284.886 462.513 284.829 462.122 284.797C461.748 284.764 461.341 284.748 460.901 284.748C460.006 284.748 459.233 284.919 458.582 285.261C457.947 285.586 457.459 286.066 457.117 286.701C456.792 287.336 456.629 288.117 456.629 289.045V318ZM462.073 291.584V295.881H446.692V291.584H462.073ZM478.455 291.584V295.881H463.562V291.584H478.455ZM467.859 285.114H473.743V310.7C473.743 311.514 473.857 312.141 474.085 312.58C474.329 313.003 474.663 313.288 475.086 313.435C475.509 313.581 476.006 313.654 476.575 313.654C476.982 313.654 477.373 313.63 477.747 313.581C478.121 313.532 478.423 313.483 478.65 313.435L478.675 317.927C478.187 318.073 477.617 318.203 476.966 318.317C476.331 318.431 475.599 318.488 474.769 318.488C473.418 318.488 472.221 318.252 471.18 317.78C470.138 317.292 469.324 316.503 468.738 315.412C468.152 314.322 467.859 312.873 467.859 311.066V285.114ZM490.174 312.141L496.277 291.584H500.037L499.012 297.736L492.859 318H489.49L490.174 312.141ZM486.585 291.584L491.346 312.238L491.736 318H487.977L480.823 291.584H486.585ZM505.75 311.994L510.364 291.584H516.102L508.973 318H505.213L505.75 311.994ZM500.672 291.584L506.702 311.896L507.459 318H504.09L497.864 297.712L496.839 291.584H500.672ZM534.998 312.702V300.104C534.998 299.16 534.827 298.347 534.485 297.663C534.144 296.979 533.623 296.451 532.923 296.076C532.239 295.702 531.377 295.515 530.335 295.515C529.375 295.515 528.545 295.677 527.845 296.003C527.145 296.328 526.6 296.768 526.209 297.321C525.818 297.875 525.623 298.501 525.623 299.201H519.764C519.764 298.16 520.016 297.15 520.521 296.174C521.025 295.197 521.757 294.326 522.718 293.562C523.678 292.797 524.826 292.194 526.16 291.755C527.495 291.315 528.992 291.096 530.652 291.096C532.638 291.096 534.396 291.429 535.926 292.097C537.472 292.764 538.685 293.773 539.563 295.124C540.459 296.459 540.906 298.135 540.906 300.153V311.896C540.906 313.101 540.988 314.183 541.15 315.144C541.329 316.088 541.582 316.91 541.907 317.609V318H535.877C535.6 317.365 535.381 316.56 535.218 315.583C535.071 314.59 534.998 313.63 534.998 312.702ZM535.853 301.936L535.901 305.573H531.678C530.587 305.573 529.627 305.679 528.797 305.891C527.967 306.086 527.275 306.379 526.722 306.77C526.168 307.16 525.753 307.632 525.477 308.186C525.2 308.739 525.062 309.366 525.062 310.065C525.062 310.765 525.224 311.408 525.55 311.994C525.875 312.564 526.347 313.011 526.966 313.337C527.601 313.662 528.366 313.825 529.261 313.825C530.465 313.825 531.515 313.581 532.41 313.093C533.322 312.588 534.038 311.978 534.559 311.262C535.079 310.529 535.356 309.838 535.389 309.187L537.293 311.799C537.098 312.466 536.764 313.182 536.292 313.947C535.82 314.712 535.201 315.445 534.437 316.145C533.688 316.828 532.785 317.39 531.727 317.829C530.685 318.269 529.48 318.488 528.113 318.488C526.388 318.488 524.85 318.146 523.499 317.463C522.148 316.763 521.09 315.827 520.325 314.655C519.56 313.467 519.178 312.124 519.178 310.627C519.178 309.227 519.438 307.99 519.959 306.916C520.496 305.826 521.277 304.914 522.303 304.182C523.344 303.449 524.614 302.896 526.111 302.521C527.609 302.131 529.318 301.936 531.238 301.936H535.853ZM552.967 296.613V318H547.083V291.584H552.698L552.967 296.613ZM561.048 291.413L560.999 296.882C560.641 296.817 560.25 296.768 559.827 296.735C559.42 296.703 559.013 296.687 558.606 296.687C557.597 296.687 556.71 296.833 555.945 297.126C555.18 297.403 554.537 297.81 554.017 298.347C553.512 298.868 553.121 299.502 552.845 300.251C552.568 301 552.405 301.838 552.356 302.766L551.014 302.863C551.014 301.203 551.176 299.665 551.502 298.249C551.827 296.833 552.316 295.588 552.967 294.514C553.634 293.439 554.464 292.601 555.457 291.999C556.466 291.397 557.63 291.096 558.948 291.096C559.306 291.096 559.689 291.128 560.096 291.193C560.519 291.258 560.836 291.332 561.048 291.413ZM575.892 318.488C573.938 318.488 572.173 318.171 570.594 317.536C569.031 316.885 567.697 315.982 566.59 314.826C565.499 313.671 564.661 312.312 564.075 310.749C563.489 309.187 563.196 307.502 563.196 305.695V304.719C563.196 302.652 563.497 300.78 564.1 299.104C564.702 297.427 565.54 295.995 566.614 294.807C567.688 293.602 568.958 292.683 570.423 292.048C571.888 291.413 573.475 291.096 575.184 291.096C577.072 291.096 578.724 291.413 580.14 292.048C581.556 292.683 582.728 293.578 583.655 294.733C584.599 295.873 585.299 297.232 585.755 298.811C586.227 300.389 586.463 302.131 586.463 304.035V306.55H566.053V302.326H580.652V301.862C580.62 300.804 580.408 299.812 580.018 298.884C579.643 297.956 579.065 297.207 578.284 296.638C577.503 296.068 576.461 295.783 575.159 295.783C574.183 295.783 573.312 295.995 572.547 296.418C571.798 296.825 571.172 297.419 570.667 298.2C570.162 298.981 569.772 299.925 569.495 301.032C569.235 302.123 569.104 303.352 569.104 304.719V305.695C569.104 306.851 569.259 307.925 569.568 308.918C569.894 309.895 570.366 310.749 570.984 311.481C571.603 312.214 572.352 312.792 573.23 313.215C574.109 313.622 575.11 313.825 576.233 313.825C577.649 313.825 578.911 313.54 580.018 312.971C581.124 312.401 582.085 311.595 582.898 310.554L585.999 313.557C585.429 314.387 584.689 315.184 583.777 315.949C582.866 316.698 581.751 317.308 580.433 317.78C579.131 318.252 577.617 318.488 575.892 318.488ZM622.791 308.845C622.791 308.112 622.677 307.461 622.449 306.892C622.238 306.322 621.855 305.801 621.302 305.329C620.748 304.857 619.967 304.401 618.958 303.962C617.965 303.506 616.696 303.042 615.149 302.57C613.457 302.049 611.894 301.472 610.462 300.837C609.046 300.186 607.809 299.437 606.751 298.591C605.693 297.728 604.871 296.743 604.285 295.637C603.699 294.514 603.406 293.22 603.406 291.755C603.406 290.306 603.707 288.988 604.31 287.8C604.928 286.612 605.799 285.586 606.922 284.724C608.061 283.845 609.404 283.169 610.95 282.697C612.496 282.209 614.205 281.965 616.077 281.965C618.714 281.965 620.984 282.453 622.889 283.43C624.809 284.406 626.282 285.716 627.308 287.36C628.349 289.004 628.87 290.819 628.87 292.805H622.791C622.791 291.633 622.539 290.599 622.034 289.704C621.546 288.793 620.797 288.076 619.788 287.556C618.795 287.035 617.534 286.774 616.004 286.774C614.555 286.774 613.351 286.994 612.391 287.434C611.43 287.873 610.714 288.467 610.242 289.216C609.77 289.965 609.534 290.811 609.534 291.755C609.534 292.422 609.689 293.033 609.998 293.586C610.307 294.123 610.779 294.628 611.414 295.1C612.049 295.555 612.846 295.987 613.807 296.394C614.767 296.8 615.898 297.191 617.2 297.565C619.17 298.151 620.887 298.802 622.352 299.519C623.816 300.218 625.037 301.016 626.014 301.911C626.99 302.806 627.723 303.824 628.211 304.963C628.699 306.086 628.943 307.364 628.943 308.796C628.943 310.293 628.642 311.644 628.04 312.849C627.438 314.037 626.575 315.054 625.452 315.9C624.345 316.73 623.011 317.373 621.448 317.829C619.902 318.269 618.177 318.488 616.272 318.488C614.563 318.488 612.879 318.26 611.219 317.805C609.575 317.349 608.077 316.657 606.727 315.729C605.376 314.785 604.301 313.614 603.504 312.214C602.706 310.798 602.308 309.146 602.308 307.258H608.436C608.436 308.413 608.631 309.398 609.021 310.212C609.428 311.026 609.99 311.693 610.706 312.214C611.422 312.718 612.252 313.093 613.196 313.337C614.157 313.581 615.182 313.703 616.272 313.703C617.705 313.703 618.901 313.5 619.861 313.093C620.838 312.686 621.57 312.116 622.059 311.384C622.547 310.651 622.791 309.805 622.791 308.845ZM632.654 305.085V304.523C632.654 302.619 632.931 300.853 633.484 299.226C634.038 297.582 634.835 296.158 635.877 294.953C636.935 293.732 638.221 292.788 639.734 292.121C641.264 291.438 642.99 291.096 644.91 291.096C646.847 291.096 648.572 291.438 650.086 292.121C651.616 292.788 652.91 293.732 653.968 294.953C655.026 296.158 655.831 297.582 656.385 299.226C656.938 300.853 657.215 302.619 657.215 304.523V305.085C657.215 306.989 656.938 308.755 656.385 310.383C655.831 312.01 655.026 313.435 653.968 314.655C652.91 315.86 651.624 316.804 650.11 317.487C648.597 318.155 646.88 318.488 644.959 318.488C643.022 318.488 641.289 318.155 639.759 317.487C638.245 316.804 636.959 315.86 635.901 314.655C634.843 313.435 634.038 312.01 633.484 310.383C632.931 308.755 632.654 306.989 632.654 305.085ZM638.538 304.523V305.085C638.538 306.273 638.66 307.396 638.904 308.454C639.148 309.512 639.531 310.44 640.052 311.237C640.573 312.035 641.24 312.661 642.054 313.117C642.868 313.573 643.836 313.801 644.959 313.801C646.049 313.801 646.993 313.573 647.791 313.117C648.605 312.661 649.272 312.035 649.793 311.237C650.314 310.44 650.696 309.512 650.94 308.454C651.201 307.396 651.331 306.273 651.331 305.085V304.523C651.331 303.352 651.201 302.245 650.94 301.203C650.696 300.145 650.306 299.209 649.769 298.396C649.248 297.582 648.58 296.947 647.767 296.491C646.969 296.019 646.017 295.783 644.91 295.783C643.803 295.783 642.843 296.019 642.029 296.491C641.232 296.947 640.573 297.582 640.052 298.396C639.531 299.209 639.148 300.145 638.904 301.203C638.66 302.245 638.538 303.352 638.538 304.523ZM668.445 280.5V318H662.537V280.5H668.445ZM690.784 311.774V291.584H696.692V318H691.126L690.784 311.774ZM691.614 306.281L693.592 306.232C693.592 308.007 693.396 309.642 693.006 311.14C692.615 312.621 692.013 313.915 691.199 315.021C690.385 316.112 689.344 316.966 688.074 317.585C686.805 318.187 685.283 318.488 683.509 318.488C682.223 318.488 681.043 318.301 679.969 317.927C678.895 317.552 677.967 316.975 677.186 316.193C676.421 315.412 675.826 314.395 675.403 313.142C674.98 311.888 674.769 310.391 674.769 308.649V291.584H680.652V308.698C680.652 309.659 680.766 310.464 680.994 311.115C681.222 311.75 681.531 312.263 681.922 312.653C682.312 313.044 682.768 313.321 683.289 313.483C683.81 313.646 684.363 313.728 684.949 313.728C686.626 313.728 687.944 313.402 688.904 312.751C689.881 312.084 690.573 311.188 690.979 310.065C691.403 308.942 691.614 307.681 691.614 306.281ZM714.832 291.584V295.881H699.939V291.584H714.832ZM704.236 285.114H710.12V310.7C710.12 311.514 710.234 312.141 710.462 312.58C710.706 313.003 711.04 313.288 711.463 313.435C711.886 313.581 712.382 313.654 712.952 313.654C713.359 313.654 713.75 313.63 714.124 313.581C714.498 313.532 714.799 313.483 715.027 313.435L715.052 317.927C714.563 318.073 713.994 318.203 713.343 318.317C712.708 318.431 711.976 318.488 711.146 318.488C709.795 318.488 708.598 318.252 707.557 317.78C706.515 317.292 705.701 316.503 705.115 315.412C704.529 314.322 704.236 312.873 704.236 311.066V285.114ZM725.672 291.584V318H719.764V291.584H725.672ZM719.373 284.65C719.373 283.755 719.666 283.015 720.252 282.429C720.854 281.826 721.684 281.525 722.742 281.525C723.784 281.525 724.606 281.826 725.208 282.429C725.81 283.015 726.111 283.755 726.111 284.65C726.111 285.529 725.81 286.262 725.208 286.848C724.606 287.434 723.784 287.727 722.742 287.727C721.684 287.727 720.854 287.434 720.252 286.848C719.666 286.262 719.373 285.529 719.373 284.65ZM730.994 305.085V304.523C730.994 302.619 731.271 300.853 731.824 299.226C732.378 297.582 733.175 296.158 734.217 294.953C735.275 293.732 736.561 292.788 738.074 292.121C739.604 291.438 741.329 291.096 743.25 291.096C745.187 291.096 746.912 291.438 748.426 292.121C749.956 292.788 751.25 293.732 752.308 294.953C753.366 296.158 754.171 297.582 754.725 299.226C755.278 300.853 755.555 302.619 755.555 304.523V305.085C755.555 306.989 755.278 308.755 754.725 310.383C754.171 312.01 753.366 313.435 752.308 314.655C751.25 315.86 749.964 316.804 748.45 317.487C746.937 318.155 745.219 318.488 743.299 318.488C741.362 318.488 739.629 318.155 738.099 317.487C736.585 316.804 735.299 315.86 734.241 314.655C733.183 313.435 732.378 312.01 731.824 310.383C731.271 308.755 730.994 306.989 730.994 305.085ZM736.878 304.523V305.085C736.878 306.273 737 307.396 737.244 308.454C737.488 309.512 737.871 310.44 738.392 311.237C738.912 312.035 739.58 312.661 740.394 313.117C741.207 313.573 742.176 313.801 743.299 313.801C744.389 313.801 745.333 313.573 746.131 313.117C746.945 312.661 747.612 312.035 748.133 311.237C748.654 310.44 749.036 309.512 749.28 308.454C749.541 307.396 749.671 306.273 749.671 305.085V304.523C749.671 303.352 749.541 302.245 749.28 301.203C749.036 300.145 748.646 299.209 748.108 298.396C747.588 297.582 746.92 296.947 746.106 296.491C745.309 296.019 744.357 295.783 743.25 295.783C742.143 295.783 741.183 296.019 740.369 296.491C739.572 296.947 738.912 297.582 738.392 298.396C737.871 299.209 737.488 300.145 737.244 301.203C737 302.245 736.878 303.352 736.878 304.523ZM766.321 297.224V318H760.438V291.584H765.979L766.321 297.224ZM765.271 303.815L763.367 303.791C763.383 301.919 763.644 300.202 764.148 298.64C764.669 297.077 765.385 295.734 766.297 294.611C767.225 293.488 768.331 292.626 769.617 292.023C770.903 291.405 772.335 291.096 773.914 291.096C775.184 291.096 776.331 291.275 777.356 291.633C778.398 291.975 779.285 292.536 780.018 293.317C780.766 294.099 781.336 295.116 781.727 296.369C782.117 297.606 782.312 299.128 782.312 300.935V318H776.404V300.91C776.404 299.641 776.217 298.64 775.843 297.907C775.485 297.159 774.956 296.63 774.256 296.32C773.572 295.995 772.718 295.832 771.692 295.832C770.683 295.832 769.78 296.044 768.982 296.467C768.185 296.89 767.509 297.468 766.956 298.2C766.419 298.933 766.004 299.779 765.711 300.739C765.418 301.7 765.271 302.725 765.271 303.815ZM803.138 310.847C803.138 310.261 802.991 309.732 802.698 309.26C802.405 308.771 801.844 308.332 801.014 307.941C800.2 307.551 798.995 307.193 797.4 306.867C796.001 306.558 794.715 306.192 793.543 305.769C792.387 305.329 791.395 304.8 790.564 304.182C789.734 303.563 789.091 302.831 788.636 301.984C788.18 301.138 787.952 300.161 787.952 299.055C787.952 297.98 788.188 296.963 788.66 296.003C789.132 295.043 789.808 294.196 790.687 293.464C791.565 292.731 792.632 292.154 793.885 291.73C795.154 291.307 796.57 291.096 798.133 291.096C800.346 291.096 802.243 291.47 803.821 292.219C805.416 292.951 806.637 293.952 807.483 295.222C808.33 296.475 808.753 297.891 808.753 299.47H802.869C802.869 298.77 802.69 298.119 802.332 297.517C801.99 296.898 801.469 296.402 800.77 296.027C800.07 295.637 799.191 295.441 798.133 295.441C797.124 295.441 796.285 295.604 795.618 295.93C794.967 296.239 794.479 296.646 794.153 297.15C793.844 297.655 793.689 298.208 793.689 298.811C793.689 299.25 793.771 299.649 793.934 300.007C794.113 300.349 794.406 300.666 794.812 300.959C795.219 301.236 795.773 301.496 796.473 301.74C797.189 301.984 798.084 302.22 799.158 302.448C801.176 302.871 802.91 303.417 804.358 304.084C805.823 304.735 806.946 305.581 807.728 306.623C808.509 307.648 808.899 308.951 808.899 310.529C808.899 311.701 808.647 312.775 808.143 313.752C807.654 314.712 806.938 315.55 805.994 316.267C805.05 316.966 803.919 317.512 802.601 317.902C801.299 318.293 799.834 318.488 798.206 318.488C795.813 318.488 793.787 318.065 792.127 317.219C790.467 316.356 789.205 315.257 788.343 313.923C787.496 312.572 787.073 311.172 787.073 309.724H792.762C792.827 310.814 793.128 311.685 793.665 312.336C794.218 312.971 794.902 313.435 795.716 313.728C796.546 314.004 797.4 314.143 798.279 314.143C799.337 314.143 800.224 314.004 800.94 313.728C801.657 313.435 802.202 313.044 802.576 312.556C802.951 312.051 803.138 311.481 803.138 310.847Z" fill="#4EF0B5"/>
</svg>
